<?xml version="1.0" encoding="UTF-8"?>
<svg xmlns="http://www.w3.org/2000/svg" width="400" height="400" viewBox="0 0 400 400">
  <defs>
    <linearGradient id="g" x1="0" x2="1">
      <stop offset="0" stop-color="#ee0979"/>
      <stop offset="1" stop-color="#ff6a00"/>
    </linearGradient>
  </defs>
  <rect width="100%" height="100%" fill="none" />
  <circle cx="200" cy="120" r="80" fill="url(#g)" />
  <g fill="#fff" transform="translate(140,90)">
    <path d="M40 10c6 0 24 18 24 18s-4 8-4 12-6 10-12 10c-6 0-12-6-18-12s-10-10-10-16 4-12 20-12z"/>
    <path d="M120 10c-6 0-24 18-24 18s4 8 4 12 6 10 12 10 12-6 18-12 10-10 10-16-4-12-20-12z"/>
  </g>
  <text x="200" y="260" font-family="Helvetica, Arial, sans-serif" font-size="44" font-weight="700" text-anchor="middle" fill="#ee0979">GoalHub</text>
</svg>
